<svg width="67" height="13" viewBox="0 0 67 13" fill="none" xmlns="http://www.w3.org/2000/svg">
<circle cx="6.5" cy="6.5" r="6.5" fill="#A8A8A8"/>
<path d="M23 7.228C24.192 8.004 25.576 8.612 27.152 9.052C28.736 9.5 30.748 9.724 33.188 9.724C34.468 9.724 35.64 9.66 36.704 9.532C37.768 9.404 38.704 9.216 39.512 8.968C40.328 8.728 41.032 8.468 41.624 8.188C42.224 7.916 42.808 7.596 43.376 7.228V9.484C40.832 11.828 37.436 13 33.188 13C32.1 13 31.056 12.916 30.056 12.748C29.064 12.58 28.22 12.376 27.524 12.136C26.828 11.896 26.164 11.604 25.532 11.26C24.9 10.924 24.404 10.62 24.044 10.348C23.676 10.076 23.328 9.788 23 9.484L23 7.228Z" fill="black"/>
<circle cx="59.876" cy="6.5" r="6.5" fill="#A8A8A8"/>
</svg>
