<svg width="32" height="32" viewBox="0 0 32 32" fill="none" xmlns="http://www.w3.org/2000/svg">
<rect x="-0.5" y="0.5" width="31" height="31" rx="15.5" transform="matrix(-1 0 0 1 31 0)" fill="#FFFDFA"/>
<rect x="-0.5" y="0.5" width="31" height="31" rx="15.5" transform="matrix(-1 0 0 1 31 0)" stroke="#E0DAD1"/>
<path d="M14.7244 15.999L18.7105 12.0129C18.8244 11.899 18.8244 11.7143 18.7105 11.6004L18.1742 11.0642C18.0603 10.9503 17.8757 10.9503 17.7618 11.0642L13.0332 15.7927C12.9193 15.9066 12.9193 16.0913 13.0332 16.2052L17.7618 20.9337C17.8757 21.0476 18.0603 21.0476 18.1742 20.9337L18.7105 20.3975C18.8244 20.2836 18.8244 20.0989 18.7105 19.985L14.7244 15.999Z" fill="#242424"/>
</svg>
