<?xml version="1.0" encoding="UTF-8" standalone="no"?>
<svg
   width="24"
   height="24"
   viewBox="0 0 24 24"
   fill="none"
   version="1.1"
   id="svg1"
   xmlns="http://www.w3.org/2000/svg"
   xmlns:svg="http://www.w3.org/2000/svg">
  <defs
     id="defs1" />
  <path
     d="m 7.956846,18.482128 c 1.2044906,1.37e-4 2.182036,0.976534 2.182324,2.181052 -2.47e-4,1.204382 -0.977806,2.182147 -2.182324,2.182284 C 6.7524229,22.845189 5.7761088,21.867562 5.7758625,20.66318 5.7761498,19.458662 6.7524503,18.482403 7.956846,18.482128 Z m 12.706356,0 c 1.204655,0 2.18201,0.976397 2.182283,2.181052 -1.36e-4,1.204519 -0.977628,2.182284 -2.182283,2.182284 -1.204382,-4.11e-4 -2.180778,-0.977902 -2.180915,-2.182284 2.74e-4,-1.204382 0.97667,-2.18064 2.180915,-2.181052 z M 7.956846,20.534819 c -0.070725,2.73e-4 -0.1280059,0.05761 -0.1282938,0.128361 2.468e-4,0.07075 0.057542,0.12932 0.1282938,0.129593 0.070862,-1.36e-4 0.1293874,-0.05884 0.1296342,-0.129593 C 8.0861923,20.5923 8.0276732,20.534956 7.956846,20.534819 Z m 12.706356,0 c -0.07061,4.1e-4 -0.127951,0.05761 -0.128225,0.128361 1.37e-4,0.07061 0.05762,0.129183 0.128225,0.129593 0.07102,0 0.129456,-0.05871 0.129593,-0.129593 -2.74e-4,-0.07102 -0.05856,-0.128361 -0.129593,-0.128361 z M 4.8243584,1.1705864 C 5.2397683,1.2451415 5.5756841,1.571503 5.65292,1.9991469 L 5.9175255,3.4651671 H 22.538129 c 0.169415,0 0.336368,0.029764 0.493193,0.086857 l 0.153678,0.066822 0.143004,0.08286 c 0.09224,0.060322 0.176942,0.1302637 0.252481,0.2084712 l 0.107014,0.1229562 0.09087,0.1323027 c 0.05597,0.091454 0.101267,0.1884369 0.136298,0.2886493 l 0.04543,0.1523506 0.02805,0.1563603 c 0.01984,0.1567297 0.01464,0.3160732 -0.01464,0.4717492 L 22.405798,13.55221 c -0.06117,0.323505 -0.228122,0.626906 -0.48635,0.851278 -0.227165,0.197181 -0.512625,0.32215 -0.817929,0.350134 l -0.13233,0.0054 H 7.956846 l 0.2552586,1.412511 H 21.81914 c 0.566817,1.37e-4 1.026345,0.459666 1.026345,1.026346 0,0.566815 -0.459528,1.026344 -1.026345,1.026344 H 7.3541345 c -0.4960254,-2e-4 -0.920508,-0.355179 -1.0089653,-0.843308 L 3.7846435,3.2072261 H 1.0263479 C 0.45953871,3.2072261 4.3097573e-5,2.7476835 2.9175732e-6,2.180881 2.9175732e-6,1.6140457 0.45951266,1.154536 1.0263479,1.154536 H 4.6426133 Z M 7.5866771,12.706283 H 20.477502 L 21.831183,5.5178573 H 6.2877076 Z"
     fill="#d7d3cf"
     id="path1"
     style="stroke-width:1.36846" />
</svg>
