<svg width="24" height="24" viewBox="5 4 24 24" fill="none" xmlns="http://www.w3.org/2000/svg">
<path d="M13.8145 20.6621C14.6946 20.6622 15.409 21.3757 15.4092 22.2559C15.409 23.136 14.6947 23.8505 13.8145 23.8506C12.9343 23.8504 12.2209 23.136 12.2207 22.2559C12.2209 21.3757 12.9343 20.6623 13.8145 20.6621ZM23.0996 20.6621C23.9799 20.6621 24.6941 21.3756 24.6943 22.2559C24.6942 23.1361 23.9799 23.8506 23.0996 23.8506C22.2195 23.8503 21.506 23.136 21.5059 22.2559C21.5061 21.3758 22.2196 20.6624 23.0996 20.6621ZM13.8145 22.1621C13.7628 22.1623 13.7209 22.2042 13.7207 22.2559C13.7209 22.3076 13.7628 22.3504 13.8145 22.3506C13.8662 22.3505 13.909 22.3076 13.9092 22.2559C13.909 22.2041 13.8662 22.1622 13.8145 22.1621ZM23.0996 22.1621C23.048 22.1624 23.0061 22.2042 23.0059 22.2559C23.006 22.3075 23.048 22.3503 23.0996 22.3506C23.1515 22.3506 23.1942 22.3077 23.1943 22.2559C23.1941 22.204 23.1515 22.1621 23.0996 22.1621ZM11.5254 8.01172C11.8289 8.0662 12.0744 8.30469 12.1309 8.61719L12.3242 9.68848H24.4697C24.5935 9.68848 24.7155 9.71023 24.8301 9.75195L24.9424 9.80078L25.0469 9.86133C25.1143 9.90541 25.1762 9.95652 25.2314 10.0137L25.3096 10.1035L25.376 10.2002C25.4169 10.267 25.45 10.3379 25.4756 10.4111L25.5088 10.5225L25.5293 10.6367C25.5438 10.7513 25.54 10.8677 25.5186 10.9814L24.373 17.0596C24.3283 17.296 24.2063 17.5177 24.0176 17.6816C23.8516 17.8257 23.643 17.9171 23.4199 17.9375L23.3232 17.9414H13.8145L14.001 18.9736H23.9443C24.3585 18.9737 24.6943 19.3095 24.6943 19.7236C24.6943 20.1378 24.3585 20.4736 23.9443 20.4736H13.374C13.0115 20.4735 12.7014 20.2141 12.6367 19.8574L10.7656 9.5H8.75C8.3358 9.5 8.00003 9.16419 8 8.75C8 8.33579 8.33579 8 8.75 8H11.3926L11.5254 8.01172ZM13.5439 16.4414H22.9639L23.9531 11.1885H12.5947L13.5439 16.4414Z" fill="#242424"/>
</svg>
