<svg xmlns="http://www.w3.org/2000/svg" width="24" height="24" viewBox="-3 -3 24 24" fill="none">
<path d="M8.75 16.75C10.3322 16.75 11.879 16.2808 13.1946 15.4018C14.5102 14.5227 15.5355 13.2733 16.141 11.8115C16.7465 10.3497 16.905 8.74113 16.5963 7.18928C16.2876 5.63743 15.5257 4.21197 14.4068 3.09315C13.288 1.97433 11.8626 1.2124 10.3107 0.903721C8.75887 0.59504 7.15034 0.753466 5.68853 1.35897C4.22672 1.96447 2.97729 2.98985 2.09824 4.30544C1.21919 5.62103 0.75 7.16775 0.75 8.75C0.75 10.03 1.05044 11.2389 1.58556 12.3118C1.98822 13.1216 1.42822 14.214 1.21489 15.0113C1.16763 15.1877 1.16762 15.3734 1.21487 15.5497C1.26211 15.7261 1.35495 15.8869 1.48404 16.016C1.61314 16.145 1.77394 16.2379 1.95029 16.2851C2.12664 16.3324 2.31232 16.3324 2.48867 16.2851C3.286 16.0718 4.37844 15.5118 5.18822 15.9153C6.29508 16.4649 7.51421 16.7506 8.75 16.75Z" stroke="#D7D3CF" stroke-width="1.5" stroke-linecap="round" stroke-linejoin="round" />
</svg>