<svg width="40" height="40" viewBox="0 0 40 40" fill="none" xmlns="http://www.w3.org/2000/svg">
<path d="M13.7629 14.8132C14.097 14.4761 14.4937 14.2088 14.9303 14.0263C15.3668 13.8439 15.8348 13.75 16.3073 13.75C16.7799 13.75 17.2478 13.8439 17.6844 14.0263C18.1209 14.2088 18.5176 14.4761 18.8518 14.8132L20.0002 15.9718L21.1487 14.8132C21.8236 14.1325 22.739 13.7501 23.6934 13.7501C24.6479 13.7502 25.5632 14.1328 26.238 14.8136C26.9128 15.4945 27.2919 16.4179 27.2918 17.3807C27.2918 18.3435 26.9125 19.2668 26.2376 19.9476L25.0891 21.1053L25.0994 21.1157L20.0105 26.25L20.0002 26.2397L19.99 26.25L14.9011 21.1157L14.9113 21.1053L13.7629 19.9476C13.4286 19.6105 13.1634 19.2103 12.9825 18.7698C12.8016 18.3293 12.7085 17.8572 12.7085 17.3804C12.7085 16.9036 12.8016 16.4315 12.9825 15.991C13.1634 15.5505 13.4286 15.1503 13.7629 14.8132Z" stroke="#242424" stroke-width="1.5625" stroke-linejoin="round"/>
</svg>
