<svg xmlns="http://www.w3.org/2000/svg" width="24" height="24" viewBox="8 8 24 24" fill="none">
<path d="M19.2197 12C23.2069 12.0001 26.4393 15.2326 26.4395 19.2197C26.4394 20.8616 25.8901 22.375 24.9668 23.5879L27.7148 26.335C28.0954 26.716 28.0956 27.334 27.7148 27.7148C27.334 28.0957 26.716 28.0955 26.335 27.7148L23.5879 24.9668C22.3749 25.8902 20.8618 26.4394 19.2197 26.4395C15.2325 26.4395 12.0001 23.2069 12 19.2197C12.0002 15.2326 15.2325 12 19.2197 12ZM19.2197 13.9512C16.3101 13.9512 13.9513 16.3103 13.9512 19.2197C13.9513 22.1293 16.3101 24.4883 19.2197 24.4883C22.1293 24.4882 24.4882 22.1292 24.4883 19.2197C24.4881 16.3103 22.1293 13.9512 19.2197 13.9512Z" fill="#242424" />
</svg>