<svg width="32" height="32" viewBox="0 0 32 32" fill="none" xmlns="http://www.w3.org/2000/svg">
<path d="M15.2002 7.80005C19.2869 7.80023 22.5995 11.1137 22.5996 15.2004C22.5995 16.8832 22.0369 18.434 21.0908 19.677L23.9072 22.4934C24.2973 22.884 24.2976 23.5171 23.9072 23.9075C23.5169 24.2978 22.8837 24.2975 22.4932 23.9075L19.6768 21.0911C18.4337 22.0371 16.8829 22.5998 15.2002 22.5999C11.1135 22.5997 7.80004 19.2871 7.7998 15.2004C7.79991 11.1137 11.1134 7.80018 15.2002 7.80005ZM15.2002 9.80005C12.218 9.80018 9.79991 12.2183 9.7998 15.2004C9.80004 18.1825 12.2181 20.5997 15.2002 20.5999C18.1823 20.5997 20.5994 18.1824 20.5996 15.2004C20.5995 12.2183 18.1824 9.80023 15.2002 9.80005Z" fill="#242424"/>
</svg>
