<svg width="32" height="32" viewBox="0 0 32 32" fill="none" xmlns="http://www.w3.org/2000/svg">
<rect x="-0.5" y="0.5" width="31" height="31" rx="15.5" transform="matrix(-1 0 0 1 31 0)" fill="#FFFDFA"/>
<rect x="-0.5" y="0.5" width="31" height="31" rx="15.5" transform="matrix(-1 0 0 1 31 0)" stroke="#E0DAD1"/>
<path d="M18.25 17C18.4 16.25 18.775 15.725 19.375 15.125C20.125 14.45 20.5 13.475 20.5 12.5C20.5 11.3065 20.0259 10.1619 19.182 9.31802C18.3381 8.47411 17.1935 8 16 8C14.8065 8 13.6619 8.47411 12.818 9.31802C11.9741 10.1619 11.5 11.3065 11.5 12.5C11.5 13.25 11.65 14.15 12.625 15.125C13.15 15.65 13.6 16.25 13.75 17M13.75 20H18.25M14.5 23H17.5" stroke="#242424" stroke-width="1.5" stroke-linecap="round" stroke-linejoin="round"/>
<circle cx="21" cy="10" r="3" fill="#F4405F"/>
</svg>
