<svg xmlns="http://www.w3.org/2000/svg" width="24" height="24" viewBox="8 8 24 24" fill="none">
<path d="M17.5565 23.1625L26.0315 14.6875C26.2315 14.4875 26.4649 14.3875 26.7315 14.3875C26.9982 14.3875 27.2315 14.4875 27.4315 14.6875C27.6315 14.8875 27.7315 15.1251 27.7315 15.4005C27.7315 15.6758 27.6315 15.9131 27.4315 16.1125L18.2565 25.3125C18.0565 25.5125 17.8232 25.6125 17.5565 25.6125C17.2899 25.6125 17.0565 25.5125 16.8565 25.3125L12.5565 21.0125C12.3565 20.8125 12.2605 20.5751 12.2685 20.3005C12.2765 20.0258 12.3809 19.7881 12.5815 19.5875C12.7822 19.3868 13.0199 19.2868 13.2945 19.2875C13.5692 19.2881 13.8065 19.3881 14.0065 19.5875L17.5565 23.1625Z" fill="white" />
</svg>