<svg width="32" height="32" viewBox="0 0 32 32" fill="none" xmlns="http://www.w3.org/2000/svg">
<rect x="0.5" y="-0.5" width="31" height="31" rx="15.5" transform="matrix(1 1.74846e-07 1.74846e-07 -1 8.74228e-08 31)" fill="#FFFDFA"/>
<rect x="0.5" y="-0.5" width="31" height="31" rx="15.5" transform="matrix(1 1.74846e-07 1.74846e-07 -1 8.74228e-08 31)" stroke="#E0DAD1"/>
<path d="M17.2756 16.001L13.2895 19.9871C13.1756 20.101 13.1756 20.2857 13.2895 20.3996L13.8258 20.9358C13.9397 21.0497 14.1243 21.0497 14.2382 20.9358L18.9668 16.2073C19.0807 16.0934 19.0807 15.9087 18.9668 15.7948L14.2382 11.0663C14.1243 10.9524 13.9397 10.9524 13.8258 11.0663L13.2895 11.6025C13.1756 11.7164 13.1756 11.9011 13.2895 12.015L17.2756 16.001Z" fill="#242424"/>
</svg>
