<svg width="32" height="32" viewBox="0 0 32 32" fill="none" xmlns="http://www.w3.org/2000/svg">
<rect x="-0.5" y="0.5" width="31" height="31" rx="15.5" transform="matrix(-1 0 0 1 31 0)" fill="#FFFDFA"/>
<rect x="-0.5" y="0.5" width="31" height="31" rx="15.5" transform="matrix(-1 0 0 1 31 0)" stroke="#E0DAD1"/>
<path d="M10.0122 11.0207C10.333 10.6971 10.7138 10.4404 11.1329 10.2653C11.552 10.0901 12.0012 10 12.4549 10C12.9085 10 13.3577 10.0901 13.7768 10.2653C14.1959 10.4404 14.5768 10.6971 14.8975 11.0207L16.0001 12.1329L17.1026 11.0207C17.7505 10.3672 18.6293 10.0001 19.5455 10.0001C20.4618 10.0002 21.3405 10.3675 21.9883 11.0211C22.6362 11.6747 23.0001 12.5612 23 13.4854C22.9999 14.4097 22.6359 15.2961 21.9879 15.9497L20.8854 17.0611L20.8952 17.071L16.0099 22L16.0001 21.9901L15.9902 22L11.1049 17.071L11.1147 17.0611L10.0122 15.9497C9.69129 15.6261 9.43674 15.2419 9.26306 14.819C9.08939 14.3961 9 13.9429 9 13.4852C9 13.0275 9.08939 12.5742 9.26306 12.1514C9.43674 11.7285 9.69129 11.3443 10.0122 11.0207Z" stroke="#242424" stroke-width="1.5" stroke-linejoin="round"/>
</svg>
