<svg width="24" height="24" viewBox="4 4 24 24" fill="none" xmlns="http://www.w3.org/2000/svg">
<path d="M24 22.9841V14.3492C24 14.1915 23.9639 14.036 23.8944 13.8949C23.825 13.7538 23.7242 13.6311 23.6 13.5365L16.6 8.20317C16.4269 8.07129 16.2164 8 16 8C15.7836 8 15.5731 8.07129 15.4 8.20317L8.4 13.5365C8.2758 13.6311 8.175 13.7538 8.10557 13.8949C8.03614 14.036 8 14.1915 8 14.3492V22.9841C8 23.2536 8.10536 23.5119 8.29289 23.7025C8.48043 23.893 8.73478 24 9 24H13C13.2652 24 13.5196 23.893 13.7071 23.7025C13.8946 23.5119 14 23.2536 14 22.9841V19.9365C14 19.6671 14.1054 19.4087 14.2929 19.2182C14.4804 19.0277 14.7348 18.9206 15 18.9206H17C17.2652 18.9206 17.5196 19.0277 17.7071 19.2182C17.8946 19.4087 18 19.6671 18 19.9365V22.9841C18 23.2536 18.1054 23.5119 18.2929 23.7025C18.4804 23.893 18.7348 24 19 24H23C23.2652 24 23.5196 23.893 23.7071 23.7025C23.8946 23.5119 24 23.2536 24 22.9841Z" stroke="#242424" stroke-width="1.5" stroke-linecap="round" stroke-linejoin="round"/>
</svg>