<svg width="18" height="18" viewBox="0 0 18 18" fill="none" xmlns="http://www.w3.org/2000/svg">
<path d="M16.75 15.7341V7.09921C16.75 6.9415 16.7139 6.78595 16.6444 6.64489C16.575 6.50384 16.4742 6.38113 16.35 6.28651L9.35 0.953174C9.1769 0.821292 8.96637 0.75 8.75 0.75C8.53363 0.75 8.3231 0.821292 8.15 0.953174L1.15 6.28651C1.0258 6.38113 0.925 6.50384 0.855573 6.64489C0.786145 6.78595 0.75 6.9415 0.75 7.09921V15.7341C0.75 16.0036 0.855357 16.2619 1.04289 16.4525C1.23043 16.643 1.48478 16.75 1.75 16.75H5.75C6.01522 16.75 6.26957 16.643 6.45711 16.4525C6.64464 16.2619 6.75 16.0036 6.75 15.7341V12.6865C6.75 12.4171 6.85536 12.1587 7.04289 11.9682C7.23043 11.7777 7.48478 11.6706 7.75 11.6706H9.75C10.0152 11.6706 10.2696 11.7777 10.4571 11.9682C10.6446 12.1587 10.75 12.4171 10.75 12.6865V15.7341C10.75 16.0036 10.8554 16.2619 11.0429 16.4525C11.2304 16.643 11.4848 16.75 11.75 16.75H15.75C16.0152 16.75 16.2696 16.643 16.4571 16.4525C16.6446 16.2619 16.75 16.0036 16.75 15.7341Z" stroke="#D7D3CF" stroke-width="1.5" stroke-linecap="round" stroke-linejoin="round"/>
</svg>
