<svg width="32" height="32" viewBox="0 0 32 32" fill="none" xmlns="http://www.w3.org/2000/svg">
<rect x="0.5" y="0.5" width="31" height="31" rx="15.5" fill="#FFFDFA"/>
<rect x="0.5" y="0.5" width="31" height="31" rx="15.5" stroke="#E0DAD1"/>
<path d="M18.625 21.3333C18.625 22.0406 18.3484 22.7189 17.8562 23.219C17.3639 23.719 16.6963 24 16.0001 24C15.304 24 14.6363 23.719 14.1441 23.219C13.6518 22.7189 13.3753 22.0406 13.3753 21.3333M10.7881 21.3333C10.4877 21.3332 10.1922 21.2557 9.92935 21.108C9.66647 20.9603 9.44475 20.7473 9.28493 20.4889C9.12269 20.2301 9.02639 19.9344 9.0047 19.6284C8.98301 19.3224 9.03662 19.0157 9.16069 18.736L9.63753 17.6587C10.2126 16.3569 10.5545 14.9615 10.6472 13.5378L10.6743 13.1173C10.7633 11.734 11.3622 10.4356 12.3516 9.48089C13.3363 8.53201 14.6412 8.00211 15.9984 8C17.3556 8.00211 18.6605 8.53201 19.6451 9.48089C20.6343 10.4354 21.2332 11.7334 21.3224 13.1164L21.3495 13.5378C21.4423 14.9615 21.7842 16.3569 22.3592 17.6587L22.8369 18.7351C22.9621 19.015 23.0167 19.3222 22.9956 19.6289C22.9745 19.9356 22.8785 20.2321 22.7162 20.4916C22.5557 20.7501 22.3331 20.963 22.0694 21.1102C21.8057 21.2575 21.5096 21.3342 21.2087 21.3333H10.7881Z" stroke="#242424" stroke-width="1.5" stroke-miterlimit="10" stroke-linecap="round" stroke-linejoin="round"/>
</svg>
