<svg width="40" height="40" viewBox="0 0 40 40" fill="none" xmlns="http://www.w3.org/2000/svg">
<path d="M22.789 25.6667C22.789 26.4181 22.4952 27.1388 21.9722 27.6701C21.4492 28.2015 20.7398 28.5 20.0001 28.5C19.2605 28.5 18.5511 28.2015 18.0281 27.6701C17.5051 27.1388 17.2112 26.4181 17.2112 25.6667M14.4623 25.6667C14.1432 25.6665 13.8292 25.5841 13.5499 25.4272C13.2706 25.2703 13.035 25.044 12.8652 24.7694C12.6929 24.4945 12.5905 24.1803 12.5675 23.8552C12.5444 23.53 12.6014 23.2042 12.7332 22.907L13.2399 21.7623C13.8508 20.3793 14.2141 18.8966 14.3127 17.3839L14.3415 16.9372C14.4361 15.4674 15.0724 14.0878 16.1236 13.0734C17.1698 12.0653 18.5563 11.5022 19.9983 11.5C21.4403 11.5022 22.8267 12.0653 23.873 13.0734C24.924 14.0876 25.5603 15.4668 25.6551 16.9362L25.6839 17.3839C25.7824 18.8966 26.1457 20.3793 26.7567 21.7623L27.2642 22.9061C27.3973 23.2034 27.4552 23.5298 27.4328 23.8557C27.4104 24.1815 27.3084 24.4966 27.136 24.7723C26.9654 25.047 26.7289 25.2732 26.4488 25.4296C26.1686 25.5861 25.8539 25.6676 25.5342 25.6667H14.4623Z" stroke="#242424" stroke-width="1.59375" stroke-miterlimit="10" stroke-linecap="round" stroke-linejoin="round"/>
</svg>
