<svg xmlns="http://www.w3.org/2000/svg" width="24" height="24" viewBox="-3 -4 24 24" fill="none">
<path d="M13.0166 8.17676C14.2998 8.17686 15.5311 8.68652 16.4385 9.59375C17.3458 10.5011 17.8555 11.7324 17.8555 13.0156C17.8554 13.7565 17.561 14.4673 17.0371 14.9912C16.5132 15.515 15.8024 15.8094 15.0615 15.8096H2.79492C2.0539 15.8096 1.34241 15.5151 0.818359 14.9912C0.294411 14.4673 8.65032e-05 13.7566 0 13.0156C0 11.7324 0.509553 10.5011 1.41699 9.59375C2.32444 8.68648 3.55564 8.17678 4.83887 8.17676H13.0166ZM4.83887 9.67676C3.95341 9.67678 3.10367 10.0283 2.47754 10.6543C1.85139 11.2804 1.5 12.1302 1.5 13.0156C1.50009 13.3587 1.63625 13.688 1.87891 13.9307C2.12164 14.1733 2.45168 14.3096 2.79492 14.3096H15.0615C15.4046 14.3094 15.7339 14.1732 15.9766 13.9307C16.2191 13.688 16.3554 13.3587 16.3555 13.0156C16.3555 12.1303 16.004 11.2804 15.3779 10.6543C14.7519 10.0284 13.902 9.67686 13.0166 9.67676H4.83887ZM8.92773 0C11.0354 0.000261552 12.7451 1.70875 12.7451 3.81641C12.7449 5.92385 11.0352 7.63255 8.92773 7.63281C6.82019 7.63264 5.11158 5.92391 5.11133 3.81641C5.11134 1.7087 6.82004 0.00017315 8.92773 0ZM8.92773 1.5C7.64833 1.50017 6.61134 2.53726 6.61133 3.81641C6.61158 5.09535 7.64848 6.13264 8.92773 6.13281C10.2069 6.13255 11.2449 5.09529 11.2451 3.81641C11.2451 2.53732 10.2071 1.50026 8.92773 1.5Z" fill="#D7D3CF" />
</svg>