<svg width="32" height="32" viewBox="0 0 32 32" fill="none" xmlns="http://www.w3.org/2000/svg">
<rect x="-0.5" y="0.5" width="31" height="31" rx="15.5" transform="matrix(-1 0 0 1 31 0)" fill="#FFFDFA"/>
<rect x="-0.5" y="0.5" width="31" height="31" rx="15.5" transform="matrix(-1 0 0 1 31 0)" stroke="#E0DAD1"/>
<path d="M21.25 16.625C21.25 17.7375 20.9201 18.8251 20.302 19.7501C19.6839 20.6751 18.8054 21.3961 17.7776 21.8218C16.7498 22.2476 15.6188 22.359 14.5276 22.1419C13.4365 21.9249 12.4342 21.3891 11.6475 20.6025C10.8609 19.8158 10.3251 18.8135 10.1081 17.7224C9.89104 16.6312 10.0024 15.5002 10.4282 14.4724C10.8539 13.4446 11.5749 12.5661 12.4999 11.948C13.4249 11.3299 14.5125 11 15.625 11H22M19.75 13.25L22 11L19.75 8.75" stroke="#242424" stroke-width="1.5" stroke-linecap="round" stroke-linejoin="round"/>
</svg>
