<svg width="40" height="40" viewBox="0 0 40 40" fill="none" xmlns="http://www.w3.org/2000/svg">
<path fill-rule="evenodd" clip-rule="evenodd" d="M13.5 13.5757C13.5 12.9292 13.7568 12.3092 14.2139 11.8521C14.671 11.395 15.291 11.1382 15.9375 11.1382H24.0625C24.709 11.1382 25.329 11.395 25.7861 11.8521C26.2432 12.3092 26.5 12.9292 26.5 13.5757V26.5984C26.5 27.5897 25.3787 28.1666 24.5728 27.5905L20 24.3242L15.4273 27.5905C14.6204 28.1674 13.5 27.5905 13.5 26.5992V13.5757ZM15.9375 12.7632C15.722 12.7632 15.5153 12.8488 15.363 13.0012C15.2106 13.1535 15.125 13.3602 15.125 13.5757V25.8095L19.2915 22.8333C19.4982 22.6856 19.7459 22.6062 20 22.6062C20.2541 22.6062 20.5018 22.6856 20.7085 22.8333L24.875 25.8095V13.5757C24.875 13.3602 24.7894 13.1535 24.637 13.0012C24.4847 12.8488 24.278 12.7632 24.0625 12.7632H15.9375Z" fill="black"/>
</svg>
