<svg width="32" height="32" viewBox="0 0 32 32" fill="none" xmlns="http://www.w3.org/2000/svg">
<rect x="-0.5" y="0.5" width="31" height="31" rx="15.5" transform="matrix(-1 0 0 1 31 0)" fill="#FFFDFA"/>
<rect x="-0.5" y="0.5" width="31" height="31" rx="15.5" transform="matrix(-1 0 0 1 31 0)" stroke="#E0DAD1"/>
<path fill-rule="evenodd" clip-rule="evenodd" d="M19.3359 8C20.0734 8 20.7813 8.29299 21.3027 8.81445C21.824 9.33583 22.1171 10.043 22.1172 10.7803C22.1172 11.5177 21.8242 12.2256 21.3027 12.7471C20.7813 13.2685 20.0734 13.5615 19.3359 13.5615C18.5987 13.5615 17.8915 13.2683 17.3701 12.7471C17.2823 12.6593 17.2034 12.5644 17.1289 12.4668L13.291 15.1543C13.4652 15.5225 13.5615 15.9267 13.5615 16.3418C13.5615 16.7572 13.4654 17.1617 13.291 17.5303L17.1279 20.2168C17.2026 20.119 17.2822 20.0244 17.3701 19.9365C17.8915 19.4152 18.5986 19.1221 19.3359 19.1221C20.0734 19.1221 20.7813 19.4151 21.3027 19.9365C21.8241 20.458 22.1172 21.1659 22.1172 21.9033C22.1171 22.6405 21.824 23.3478 21.3027 23.8691C20.7813 24.3906 20.0734 24.6836 19.3359 24.6836C18.5986 24.6835 17.8915 24.3905 17.3701 23.8691C16.8488 23.3478 16.5558 22.6406 16.5557 21.9033C16.5557 21.7377 16.5718 21.5739 16.6006 21.4131L12.5508 18.5791C12.5298 18.5644 12.5119 18.546 12.4932 18.5293C12.0063 18.9104 11.4048 19.123 10.7803 19.123C10.0431 19.123 9.33582 18.8298 8.81445 18.3086C8.29305 17.7872 8.00006 17.0792 8 16.3418C8.00006 15.6045 8.29313 14.8974 8.81445 14.376C9.33586 13.8546 10.0429 13.5616 10.7803 13.5615C11.4047 13.5615 12.0064 13.7733 12.4932 14.1543C12.5118 14.1377 12.5299 14.1201 12.5508 14.1055L16.6006 11.2705C16.5718 11.1097 16.5557 10.9458 16.5557 10.7803C16.5557 10.0429 16.8487 9.33586 17.3701 8.81445C17.8915 8.29305 18.5986 8.00006 19.3359 8ZM19.3359 20.4053C18.939 20.4053 18.5581 20.5631 18.2773 20.8438C17.9966 21.1245 17.8389 21.5062 17.8389 21.9033C17.839 22.3003 17.9967 22.6812 18.2773 22.9619C18.5581 23.2426 18.939 23.4003 19.3359 23.4004C19.7329 23.4004 20.1138 23.2425 20.3945 22.9619C20.6752 22.6812 20.8329 22.3003 20.833 21.9033C20.833 21.5062 20.6753 21.1245 20.3945 20.8438C20.1138 20.5632 19.7328 20.4053 19.3359 20.4053ZM10.7803 14.8447C10.3833 14.8448 10.0024 15.0025 9.72168 15.2832C9.44103 15.5639 9.28327 15.9448 9.2832 16.3418C9.28327 16.7387 9.4411 17.1197 9.72168 17.4004C10.0024 17.681 10.3833 17.8388 10.7803 17.8389C11.1773 17.8389 11.5581 17.6811 11.8389 17.4004C12.1196 17.1197 12.2773 16.7388 12.2773 16.3418C12.2773 15.9448 12.1195 15.5639 11.8389 15.2832C11.5581 15.0026 11.1773 14.8447 10.7803 14.8447ZM19.3359 9.2832C18.9389 9.28327 18.5581 9.44095 18.2773 9.72168C17.9966 10.0024 17.8389 10.3833 17.8389 10.7803C17.8389 11.1773 17.9967 11.5581 18.2773 11.8389C18.5581 12.1196 18.9389 12.2773 19.3359 12.2773C19.733 12.2773 20.1137 12.1197 20.3945 11.8389C20.6753 11.5581 20.833 11.1774 20.833 10.7803C20.8329 10.3833 20.6753 10.0024 20.3945 9.72168C20.1138 9.44104 19.7329 9.2832 19.3359 9.2832Z" fill="#242424"/>
</svg>
