<svg width="40" height="40" viewBox="0 0 40 40" fill="none" xmlns="http://www.w3.org/2000/svg">
<path fill-rule="evenodd" clip-rule="evenodd" d="M16.5247 11.6667C15.7565 11.6667 15.0192 11.9719 14.476 12.5151C13.933 13.0582 13.6277 13.7949 13.6276 14.5629C13.6276 15.3311 13.9328 16.0684 14.476 16.6116C15.0192 17.1548 15.7565 17.46 16.5247 17.46C17.2927 17.4599 18.0294 17.1546 18.5725 16.6116C18.6639 16.5202 18.7461 16.4213 18.8237 16.3197L22.8215 19.1191C22.64 19.5027 22.5398 19.9238 22.5398 20.3561C22.5398 20.7888 22.6399 21.2102 22.8215 21.5941L18.8247 24.3926C18.747 24.2907 18.6641 24.1922 18.5725 24.1006C18.0293 23.5576 17.2928 23.2523 16.5247 23.2522C15.7565 23.2522 15.0192 23.5574 14.476 24.1006C13.9329 24.6438 13.6276 25.3812 13.6276 26.1494C13.6277 26.9173 13.933 27.654 14.476 28.1971C15.0192 28.7403 15.7565 29.0455 16.5247 29.0455C17.2928 29.0454 18.0293 28.7402 18.5725 28.1971C19.1155 27.654 19.4207 26.9174 19.4209 26.1494C19.4209 25.9769 19.4041 25.8062 19.3741 25.6387L23.5926 22.6867C23.6145 22.6713 23.6332 22.6521 23.6526 22.6348C24.1598 23.0317 24.7863 23.2533 25.4369 23.2533C26.2048 23.2532 26.9415 22.9478 27.4846 22.4049C28.0277 21.8617 28.3329 21.1242 28.333 20.3561C28.3329 19.5881 28.0277 18.8515 27.4846 18.3084C26.9415 17.7653 26.205 17.4601 25.4369 17.46C24.7864 17.46 24.1597 17.6806 23.6526 18.0775C23.6332 18.0602 23.6144 18.0419 23.5926 18.0266L19.3741 15.0735C19.4041 14.906 19.4209 14.7353 19.4209 14.5629C19.4208 13.7948 19.1156 13.0583 18.5725 12.5151C18.0293 11.972 17.2928 11.6668 16.5247 11.6667ZM16.5247 24.5889C16.9382 24.589 17.335 24.7533 17.6274 25.0457C17.9199 25.3381 18.0842 25.7357 18.0842 26.1494C18.0841 26.5628 17.9198 26.9597 17.6274 27.2521C17.335 27.5444 16.9382 27.7088 16.5247 27.7088C16.1113 27.7088 15.7145 27.5443 15.422 27.2521C15.1297 26.9597 14.9654 26.5628 14.9653 26.1494C14.9653 25.7357 15.1295 25.3381 15.422 25.0457C15.7145 24.7534 16.1113 24.5889 16.5247 24.5889ZM25.4369 18.7967C25.8504 18.7967 26.2472 18.961 26.5396 19.2534C26.8319 19.5458 26.9963 19.9426 26.9963 20.3561C26.9963 20.7696 26.8319 21.1664 26.5396 21.4588C26.2472 21.7512 25.8504 21.9155 25.4369 21.9156C25.0233 21.9156 24.6267 21.7512 24.3342 21.4588C24.0418 21.1664 23.8775 20.7697 23.8774 20.3561C23.8775 19.9426 24.0418 19.5458 24.3342 19.2534C24.6266 18.9611 25.0234 18.7967 25.4369 18.7967ZM16.5247 13.0034C16.9383 13.0035 17.335 13.1677 17.6274 13.4602C17.9199 13.7526 18.0841 14.1493 18.0842 14.5629C18.0842 14.9764 17.9198 15.3731 17.6274 15.6656C17.335 15.958 16.9383 16.1222 16.5247 16.1223C16.1111 16.1223 15.7145 15.9581 15.422 15.6656C15.1295 15.3731 14.9653 14.9765 14.9653 14.5629C14.9654 14.1493 15.1296 13.7526 15.422 13.4602C15.7145 13.1678 16.1112 13.0034 16.5247 13.0034Z" fill="#242424"/>
</svg>
